<?xml version="1.0" standalone="no"?><!DOCTYPE svg PUBLIC "-//W3C//DTD SVG 1.1//EN" "http://www.w3.org/Graphics/SVG/1.1/DTD/svg11.dtd"><svg t="1688345131947" class="icon" viewBox="0 0 1024 1024" version="1.1" xmlns="http://www.w3.org/2000/svg" p-id="3479" xmlns:xlink="http://www.w3.org/1999/xlink" width="200" height="200"><path d="M669.964 198.627c7.81-7.81 20.474-7.81 28.284 0 7.81 7.81 7.81 20.474 0 28.284L546.274 378.886c-7.81 7.81-20.474 7.81-28.285 0-7.81-7.81-7.81-20.474 0-28.285l151.975-151.974z" fill="#85A5FF" p-id="3480"></path><path d="M544 451.58a30 30 0 0 1 8.8-21.228L823.508 160H203.493L472.2 428.355A30 30 0 0 1 481 449.582v347.127l63 63v-408.13z m60 12.437V930c0 16.569-13.431 30-30 30h-2.135a30 30 0 0 1-21.213-8.787L429.787 830.348A30 30 0 0 1 421 809.135V462.02L109.8 151.227C90.884 132.334 104.264 100 131 100h765c26.737 0 40.117 32.334 21.2 51.227L604 464.017z" p-id="3481"></path></svg>