<?xml version="1.0" standalone="no"?><!DOCTYPE svg PUBLIC "-//W3C//DTD SVG 1.1//EN" "http://www.w3.org/Graphics/SVG/1.1/DTD/svg11.dtd"><svg t="1756452745479" class="icon" viewBox="0 0 1024 1024" version="1.1" xmlns="http://www.w3.org/2000/svg" p-id="15617" xmlns:xlink="http://www.w3.org/1999/xlink" width="200" height="200"><path d="M750.161067 905.813333A118.186667 118.186667 0 1 1 868.347733 1024a118.186667 118.186667 0 0 1-118.186666-118.186667z m-78.677334 39.253334H356.433067l-7.509334-0.682667a38.656 38.656 0 0 1-27.818666-20.992l-68.266667-135.765333H80.379733l-7.082666-0.682667a39.338667 39.338667 0 0 1 7.082666-77.994667h196.864l7.338667 0.682667a39.509333 39.509333 0 0 1 27.818667 20.992l68.266666 135.765333h290.645334l7.082666 0.682667a39.338667 39.338667 0 0 1-6.656 77.994667z m78.677334-433.152a118.186667 118.186667 0 1 1 118.186666 118.186666A118.186667 118.186667 0 0 1 750.161067 512z m-669.525334 39.424a39.338667 39.338667 0 0 1-7.082666-77.994667l7.082666-0.682667h590.848a39.338667 39.338667 0 0 1 7.082667 77.994667l-7.082667 0.682667z m0-236.373334a39.338667 39.338667 0 0 1-7.082666-77.994666l7.082666-0.682667h172.458667l68.266667-135.765333A38.826667 38.826667 0 0 1 349.179733 79.36l7.509334-0.768h315.050666a39.424 39.424 0 0 1 7.082667 78.250667l-7.082667 0.512H380.8384l-68.266667 135.936a39.082667 39.082667 0 0 1-27.818666 20.992l-7.338667 0.682666z m669.525334-196.864a118.186667 118.186667 0 1 1 118.186666 118.186667 118.186667 118.186667 0 0 1-118.186666-118.101333z" p-id="15618"></path></svg>