<?xml version="1.0" standalone="no"?><!DOCTYPE svg PUBLIC "-//W3C//DTD SVG 1.1//EN" "http://www.w3.org/Graphics/SVG/1.1/DTD/svg11.dtd"><svg t="1688431468116" class="icon" viewBox="0 0 1024 1024" version="1.1" xmlns="http://www.w3.org/2000/svg" p-id="20613" xmlns:xlink="http://www.w3.org/1999/xlink" width="200" height="200"><path d="M754.2 509.7c0 4.3-1.1 8.5-3.3 12.4L531.2 907.8c-6.8 12-22.1 16.2-34.1 9.3-12-6.8-16.2-22.1-9.3-34.1l212.6-373.3-212.6-369.5c-6.9-12-2.8-27.3 9.2-34.1s27.3-2.8 34.1 9.2l219.7 382c2.3 3.8 3.4 8.1 3.4 12.4z" p-id="20614"></path><path d="M539.6 509.7c0 4.3-1.1 8.5-3.3 12.4L316.6 907.8c-6.8 12-22.1 16.2-34.1 9.3-12-6.8-16.2-22.1-9.3-34.1l212.6-373.3-212.6-369.5c-6.9-12-2.8-27.3 9.2-34.1 12-6.9 27.3-2.8 34.1 9.2l219.7 382c2.3 3.8 3.4 8.1 3.4 12.4z" p-id="20615"></path></svg>